<svg width="160" height="29" viewBox="0 0 160 29" fill="none" xmlns="http://www.w3.org/2000/svg">
<path fill-rule="evenodd" clip-rule="evenodd" d="M22.2108 10.7127C22.3076 10.8348 22.3907 10.9665 22.4586 11.1061C26.4602 12.0655 29.4062 15.2401 29.4062 18.9983C29.4062 23.5138 25.1536 27.1875 19.9265 27.1875C17.1975 27.1875 14.7347 26.1858 13.0034 24.5862H6.43177C5.0174 24.5862 3.86667 23.5921 3.86667 22.3703C3.86667 21.6685 4.24664 21.0424 4.83779 20.6361C4.24664 20.2298 3.86667 19.6036 3.86667 18.9019C3.86667 18.2002 4.24664 17.574 4.83779 17.1677C4.24664 16.7614 3.86667 16.1352 3.86667 15.4335C3.86667 14.7318 4.24664 14.1056 4.83779 13.6993C4.24664 13.2931 3.86667 12.6669 3.86667 11.9651C3.86667 10.7433 5.0174 9.74925 6.43177 9.74925H7.88607C7.60213 9.39268 7.43551 8.9613 7.43551 8.49678C7.43551 8.03226 7.60218 7.60088 7.88607 7.24431H3.42057C2.00619 7.24431 0.855469 6.25024 0.855469 5.0284C0.855469 3.80657 2.00619 2.8125 3.42057 2.8125H17.0825C18.4969 2.8125 19.6476 3.80657 19.6476 5.0284C19.6476 5.49293 19.4809 5.9243 19.1971 6.28087H23.6626C25.0769 6.28087 26.2277 7.27495 26.2277 8.49678C26.2277 9.71861 25.0769 10.7127 23.6626 10.7127H22.2108ZM25.1124 8.49678C25.1124 7.80619 24.462 7.24431 23.6626 7.24431H10.0006C9.20113 7.24431 8.55077 7.80619 8.55077 8.49678C8.55077 9.18737 9.20113 9.74925 10.0006 9.74925H20.0937H23.6626C24.462 9.74925 25.1124 9.18737 25.1124 8.49678ZM1.97073 5.0284C1.97073 5.719 2.62109 6.28087 3.42057 6.28087H17.0825C17.882 6.28087 18.5324 5.719 18.5324 5.0284C18.5324 4.33781 17.882 3.77594 17.0825 3.77594H3.42057C2.62109 3.77594 1.97073 4.33781 1.97073 5.0284ZM20.0937 10.7127H6.43177C5.63235 10.7127 4.98193 11.2746 4.98193 11.9651C4.98193 12.6557 5.63235 13.2176 6.43177 13.2176H13.2182C14.9354 11.7306 17.3087 10.8091 19.9265 10.8091C20.1959 10.8091 20.4626 10.8194 20.7264 10.8385C20.5334 10.7578 20.3183 10.7127 20.0937 10.7127ZM12.2654 14.1811H6.43177C5.6323 14.1811 4.98193 14.7429 4.98193 15.4335C4.98193 16.1242 5.6323 16.686 6.43177 16.686H10.8321C11.143 15.7753 11.6324 14.9303 12.2654 14.1811ZM10.5761 17.6494H6.43177C5.6323 17.6494 4.98193 18.2113 4.98193 18.9019C4.98193 19.5925 5.6323 20.1544 6.43177 20.1544H10.5417C10.4796 19.7766 10.4468 19.3907 10.4468 18.9983C10.4468 18.5389 10.4915 18.0884 10.5761 17.6494ZM4.98193 22.3703C4.98193 23.0609 5.6323 23.6227 6.43177 23.6227H12.1073C11.5078 22.8687 11.0507 22.0241 10.7694 21.1178H6.43177C5.6323 21.1178 4.98193 21.6796 4.98193 22.3703ZM11.562 18.9983C11.562 22.9826 15.3143 26.2241 19.9265 26.2241C24.5386 26.2241 28.2909 22.9826 28.2909 18.9983C28.2909 15.014 24.5386 11.7725 19.9265 11.7725C15.3143 11.7725 11.562 15.014 11.562 18.9983ZM18.5041 17.3517C18.5041 17.937 19.141 18.4133 19.9238 18.4133C21.4183 18.4133 22.6342 19.3896 22.6342 20.5898C22.6342 21.6114 21.7531 22.4703 20.5692 22.7035V22.9443C20.5692 23.2521 20.2802 23.5018 19.9238 23.5018C19.5675 23.5018 19.2785 23.2521 19.2785 22.9443V22.7035C18.0946 22.4703 17.2134 21.6114 17.2134 20.5898C17.2134 20.2819 17.5024 20.0323 17.8587 20.0323C18.2151 20.0323 18.5041 20.2819 18.5041 20.5898C18.5041 21.1751 19.141 21.6513 19.9238 21.6513C20.7067 21.6513 21.3436 21.1751 21.3436 20.5898C21.3436 20.0044 20.7067 19.5282 19.9238 19.5282C18.4293 19.5282 17.2134 18.5518 17.2134 17.3517C17.2134 16.3302 18.0946 15.4712 19.2785 15.2381V14.9481C19.2785 14.6403 19.5675 14.3906 19.9238 14.3906C20.2802 14.3906 20.5692 14.6403 20.5692 14.9481V15.2381C21.7531 15.4712 22.6342 16.3302 22.6342 17.3517C22.6342 17.6596 22.3452 17.9092 21.9889 17.9092C21.6325 17.9092 21.3436 17.6596 21.3436 17.3517C21.3436 16.7664 20.7067 16.2902 19.9238 16.2902C19.141 16.2902 18.5041 16.7664 18.5041 17.3517Z" fill="#24695C"/>
<path d="M22.4586 11.1061L22.2337 11.2154L22.2854 11.3217L22.4003 11.3493L22.4586 11.1061ZM22.2108 10.7127V10.4627H21.6938L22.0149 10.8679L22.2108 10.7127ZM13.0034 24.5862L13.1731 24.4026L13.1013 24.3362H13.0034V24.5862ZM4.83779 20.6361L4.97939 20.8421L5.27917 20.6361L4.97939 20.43L4.83779 20.6361ZM4.83779 17.1677L4.97939 17.3737L5.27917 17.1677L4.97939 16.9617L4.83779 17.1677ZM4.83779 13.6993L4.97939 13.9054L5.27917 13.6993L4.97939 13.4933L4.83779 13.6993ZM7.88607 9.74925V9.99925H8.40474L8.08164 9.59351L7.88607 9.74925ZM7.88607 7.24431L8.08166 7.40003L8.40468 6.99431H7.88607V7.24431ZM19.1971 6.28087L19.0015 6.12516L18.6784 6.53087H19.1971V6.28087ZM13.2182 13.2176V13.4676H13.3115L13.3819 13.4066L13.2182 13.2176ZM20.7264 10.8385L20.7083 11.0879L20.8229 10.6079L20.7264 10.8385ZM12.2654 14.1811L12.4564 14.3424L12.8039 13.9311H12.2654V14.1811ZM10.8321 16.686V16.936H11.011L11.0687 16.7667L10.8321 16.686ZM10.5761 17.6494L10.8216 17.6967L10.8789 17.3994H10.5761V17.6494ZM10.5417 20.1544V20.4044H10.8361L10.7884 20.1138L10.5417 20.1544ZM12.1073 23.6227V23.8727H12.6254L12.303 23.4672L12.1073 23.6227ZM10.7694 21.1178L11.0081 21.0437L10.9535 20.8678H10.7694V21.1178ZM20.5692 22.7035L20.5208 22.4582L20.3192 22.4979V22.7035H20.5692ZM19.2785 22.7035H19.5285V22.4979L19.3268 22.4582L19.2785 22.7035ZM19.2785 15.2381L19.3268 15.4833L19.5285 15.4436V15.2381H19.2785ZM20.5692 15.2381H20.3192V15.4436L20.5208 15.4833L20.5692 15.2381ZM22.6834 10.9969C22.6075 10.8405 22.5146 10.6935 22.4068 10.5574L22.0149 10.8679C22.1006 10.9761 22.1739 11.0924 22.2337 11.2154L22.6834 10.9969ZM29.6562 18.9983C29.6562 15.0993 26.6045 11.843 22.5169 10.863L22.4003 11.3493C26.316 12.288 29.1562 15.3809 29.1562 18.9983H29.6562ZM19.9265 27.4375C25.2561 27.4375 29.6562 23.685 29.6562 18.9983H29.1562C29.1562 23.3427 25.0511 26.9375 19.9265 26.9375V27.4375ZM12.8338 24.7698C14.6129 26.4137 17.1369 27.4375 19.9265 27.4375V26.9375C17.2581 26.9375 14.8565 25.958 13.1731 24.4026L12.8338 24.7698ZM6.43177 24.8362H13.0034V24.3362H6.43177V24.8362ZM3.61667 22.3703C3.61667 23.7633 4.91492 24.8362 6.43177 24.8362V24.3362C5.11988 24.3362 4.11667 23.4209 4.11667 22.3703H3.61667ZM4.69619 20.43C4.04859 20.8751 3.61667 21.5733 3.61667 22.3703H4.11667C4.11667 21.7638 4.44469 21.2096 4.97939 20.8421L4.69619 20.43ZM3.61667 18.9019C3.61667 19.6989 4.04859 20.397 4.69618 20.8421L4.97939 20.43C4.44469 20.0626 4.11667 19.5083 4.11667 18.9019H3.61667ZM4.69618 16.9617C4.04859 17.4068 3.61667 18.1049 3.61667 18.9019H4.11667C4.11667 18.2954 4.44469 17.7412 4.97939 17.3737L4.69618 16.9617ZM3.61667 15.4335C3.61667 16.2305 4.04859 16.9287 4.69618 17.3737L4.97939 16.9617C4.44469 16.5942 4.11667 16.04 4.11667 15.4335H3.61667ZM4.69618 13.4933C4.04859 13.9384 3.61667 14.6365 3.61667 15.4335H4.11667C4.11667 14.8271 4.44469 14.2729 4.97939 13.9054L4.69618 13.4933ZM3.61667 11.9651C3.61667 12.7621 4.04859 13.4603 4.69618 13.9054L4.97939 13.4933C4.44469 13.1258 4.11667 12.5716 4.11667 11.9651H3.61667ZM6.43177 9.49925C4.91492 9.49925 3.61667 10.5722 3.61667 11.9651H4.11667C4.11667 10.9145 5.11988 9.99925 6.43177 9.99925V9.49925ZM7.88607 9.49925H6.43177V9.99925H7.88607V9.49925ZM7.18551 8.49678C7.18551 9.02308 7.37471 9.50841 7.69051 9.90498L8.08164 9.59351C7.82955 9.27694 7.68551 8.89951 7.68551 8.49678H7.18551ZM7.69049 7.08859C7.37477 7.48514 7.18551 7.97045 7.18551 8.49678H7.68551C7.68551 8.09406 7.82959 7.71662 8.08166 7.40003L7.69049 7.08859ZM3.42057 7.49431H7.88607V6.99431H3.42057V7.49431ZM0.605469 5.0284C0.605469 6.42139 1.90372 7.49431 3.42057 7.49431V6.99431C2.10867 6.99431 1.10547 6.07908 1.10547 5.0284H0.605469ZM3.42057 2.5625C1.90372 2.5625 0.605469 3.63542 0.605469 5.0284H1.10547C1.10547 3.97773 2.10867 3.0625 3.42057 3.0625V2.5625ZM17.0825 2.5625H3.42057V3.0625H17.0825V2.5625ZM19.8976 5.0284C19.8976 3.63542 18.5994 2.5625 17.0825 2.5625V3.0625C18.3944 3.0625 19.3976 3.97773 19.3976 5.0284H19.8976ZM19.3926 6.43659C19.7084 6.04004 19.8976 5.55473 19.8976 5.0284H19.3976C19.3976 5.43112 19.2535 5.80857 19.0015 6.12516L19.3926 6.43659ZM23.6626 6.03087H19.1971V6.53087H23.6626V6.03087ZM26.4777 8.49678C26.4777 7.10379 25.1794 6.03087 23.6626 6.03087V6.53087C24.9744 6.53087 25.9777 7.4461 25.9777 8.49678H26.4777ZM23.6626 10.9627C25.1794 10.9627 26.4777 9.88977 26.4777 8.49678H25.9777C25.9777 9.54745 24.9744 10.4627 23.6626 10.4627V10.9627ZM22.2108 10.9627H23.6626V10.4627H22.2108V10.9627ZM23.6626 7.49431C24.3595 7.49431 24.8624 7.97734 24.8624 8.49678H25.3624C25.3624 7.63503 24.5645 6.99431 23.6626 6.99431V7.49431ZM10.0006 7.49431H23.6626V6.99431H10.0006V7.49431ZM8.80077 8.49678C8.80077 7.97734 9.30362 7.49431 10.0006 7.49431V6.99431C9.09865 6.99431 8.30077 7.63503 8.30077 8.49678H8.80077ZM10.0006 9.49925C9.30362 9.49925 8.80077 9.01622 8.80077 8.49678H8.30077C8.30077 9.35852 9.09865 9.99925 10.0006 9.99925V9.49925ZM20.0937 9.49925H10.0006V9.99925H20.0937V9.49925ZM23.6626 9.49925H20.0937V9.99925H23.6626V9.49925ZM24.8624 8.49678C24.8624 9.01622 24.3595 9.49925 23.6626 9.49925V9.99925C24.5645 9.99925 25.3624 9.35852 25.3624 8.49678H24.8624ZM3.42057 6.03087C2.72358 6.03087 2.22073 5.54784 2.22073 5.0284H1.72073C1.72073 5.89015 2.51861 6.53087 3.42057 6.53087V6.03087ZM17.0825 6.03087H3.42057V6.53087H17.0825V6.03087ZM18.2824 5.0284C18.2824 5.54784 17.7795 6.03087 17.0825 6.03087V6.53087C17.9845 6.53087 18.7824 5.89015 18.7824 5.0284H18.2824ZM17.0825 4.02594C17.7795 4.02594 18.2824 4.50897 18.2824 5.0284H18.7824C18.7824 4.16666 17.9845 3.52594 17.0825 3.52594V4.02594ZM3.42057 4.02594H17.0825V3.52594H3.42057V4.02594ZM2.22073 5.0284C2.22073 4.50897 2.72358 4.02594 3.42057 4.02594V3.52594C2.51861 3.52594 1.72073 4.16666 1.72073 5.0284H2.22073ZM6.43177 10.9627H20.0937V10.4627H6.43177V10.9627ZM5.23193 11.9651C5.23193 11.4457 5.73483 10.9627 6.43177 10.9627V10.4627C5.52987 10.4627 4.73193 11.1034 4.73193 11.9651H5.23193ZM6.43177 12.9676C5.73483 12.9676 5.23193 12.4846 5.23193 11.9651H4.73193C4.73193 12.8269 5.52987 13.4676 6.43177 13.4676V12.9676ZM13.2182 12.9676H6.43177V13.4676H13.2182V12.9676ZM19.9265 10.5591C17.2505 10.5591 14.8186 11.501 13.0546 13.0286L13.3819 13.4066C15.0522 11.9601 17.3669 11.0591 19.9265 11.0591V10.5591ZM20.7444 10.5892C20.475 10.5696 20.2023 10.5591 19.9265 10.5591V11.0591C20.1896 11.0591 20.4502 11.0691 20.7083 11.0879L20.7444 10.5892ZM20.0937 10.9627C20.2849 10.9627 20.4672 11.0011 20.6298 11.0691L20.8229 10.6079C20.5996 10.5145 20.3517 10.4627 20.0937 10.4627V10.9627ZM6.43177 14.4311H12.2654V13.9311H6.43177V14.4311ZM5.23193 15.4335C5.23193 14.9141 5.73479 14.4311 6.43177 14.4311V13.9311C5.52981 13.9311 4.73193 14.5718 4.73193 15.4335H5.23193ZM6.43177 16.436C5.73478 16.436 5.23193 15.953 5.23193 15.4335H4.73193C4.73193 16.2953 5.52982 16.936 6.43177 16.936V16.436ZM10.8321 16.436H6.43177V16.936H10.8321V16.436ZM12.0745 14.0197C11.4226 14.7912 10.9171 15.6632 10.5955 16.6052L11.0687 16.7667C11.3689 15.8874 11.8422 15.0694 12.4564 14.3424L12.0745 14.0197ZM6.43177 17.8994H10.5761V17.3994H6.43177V17.8994ZM5.23193 18.9019C5.23193 18.3824 5.73478 17.8994 6.43177 17.8994V17.3994C5.52982 17.3994 4.73193 18.0401 4.73193 18.9019H5.23193ZM6.43177 19.9044C5.73478 19.9044 5.23193 19.4214 5.23193 18.9019H4.73193C4.73193 19.7637 5.52982 20.4044 6.43177 20.4044V19.9044ZM10.5417 19.9044H6.43177V20.4044H10.5417V19.9044ZM10.1968 18.9983C10.1968 19.4047 10.2308 19.8041 10.295 20.1949L10.7884 20.1138C10.7284 19.749 10.6968 19.3767 10.6968 18.9983H10.1968ZM10.3306 17.6021C10.2431 18.0563 10.1968 18.5226 10.1968 18.9983H10.6968C10.6968 18.5552 10.7399 18.1205 10.8216 17.6967L10.3306 17.6021ZM6.43177 23.3727C5.73478 23.3727 5.23193 22.8897 5.23193 22.3703H4.73193C4.73193 23.2321 5.52982 23.8727 6.43177 23.8727V23.3727ZM12.1073 23.3727H6.43177V23.8727H12.1073V23.3727ZM10.5306 21.1919C10.8217 22.1296 11.2941 23.0015 11.9116 23.7783L12.303 23.4672C11.7216 22.7358 11.2798 21.9186 11.0081 21.0437L10.5306 21.1919ZM6.43177 21.3678H10.7694V20.8678H6.43177V21.3678ZM5.23193 22.3703C5.23193 21.8508 5.73478 21.3678 6.43177 21.3678V20.8678C5.52982 20.8678 4.73193 21.5085 4.73193 22.3703H5.23193ZM19.9265 25.9741C15.4168 25.9741 11.812 22.8114 11.812 18.9983H11.312C11.312 23.1537 15.2118 26.4741 19.9265 26.4741V25.9741ZM28.0409 18.9983C28.0409 22.8114 24.4362 25.9741 19.9265 25.9741V26.4741C24.6411 26.4741 28.5409 23.1537 28.5409 18.9983H28.0409ZM19.9265 12.0225C24.4362 12.0225 28.0409 15.1852 28.0409 18.9983H28.5409C28.5409 14.8428 24.6411 11.5225 19.9265 11.5225V12.0225ZM11.812 18.9983C11.812 15.1852 15.4168 12.0225 19.9265 12.0225V11.5225C15.2118 11.5225 11.312 14.8428 11.312 18.9983H11.812ZM19.9238 18.1633C19.5813 18.1633 19.28 18.0587 19.0701 17.9018C18.8601 17.7448 18.7541 17.5475 18.7541 17.3517H18.2541C18.2541 17.7413 18.4665 18.0748 18.7707 18.3022C19.0749 18.5297 19.4835 18.6633 19.9238 18.6633V18.1633ZM22.8842 20.5898C22.8842 19.2031 21.5024 18.1633 19.9238 18.1633V18.6633C21.3343 18.6633 22.3842 19.5761 22.3842 20.5898H22.8842ZM20.6175 22.9488C21.8772 22.7007 22.8842 21.7685 22.8842 20.5898H22.3842C22.3842 21.4542 21.629 22.24 20.5208 22.4582L20.6175 22.9488ZM20.8192 22.9443V22.7035H20.3192V22.9443H20.8192ZM19.9238 23.7518C20.3827 23.7518 20.8192 23.4233 20.8192 22.9443H20.3192C20.3192 23.081 20.1777 23.2518 19.9238 23.2518V23.7518ZM19.0285 22.9443C19.0285 23.4233 19.465 23.7518 19.9238 23.7518V23.2518C19.6699 23.2518 19.5285 23.081 19.5285 22.9443H19.0285ZM19.0285 22.7035V22.9443H19.5285V22.7035H19.0285ZM16.9634 20.5898C16.9634 21.7685 17.9705 22.7007 19.2302 22.9488L19.3268 22.4582C18.2186 22.24 17.4634 21.4542 17.4634 20.5898H16.9634ZM17.8587 19.7823C17.3999 19.7823 16.9634 20.1108 16.9634 20.5898H17.4634C17.4634 20.4531 17.6049 20.2823 17.8587 20.2823V19.7823ZM18.7541 20.5898C18.7541 20.1108 18.3176 19.7823 17.8587 19.7823V20.2823C18.1126 20.2823 18.2541 20.4531 18.2541 20.5898H18.7541ZM19.9238 21.4013C19.5813 21.4013 19.28 21.2968 19.0701 21.1398C18.8601 20.9828 18.7541 20.7855 18.7541 20.5898H18.2541C18.2541 20.9794 18.4665 21.3129 18.7707 21.5403C19.0749 21.7677 19.4835 21.9013 19.9238 21.9013V21.4013ZM21.0936 20.5898C21.0936 20.7855 20.9875 20.9828 20.7775 21.1398C20.5676 21.2968 20.2664 21.4013 19.9238 21.4013V21.9013C20.3641 21.9013 20.7727 21.7677 21.077 21.5403C21.3811 21.3129 21.5936 20.9794 21.5936 20.5898H21.0936ZM19.9238 19.7782C20.2664 19.7782 20.5676 19.8827 20.7775 20.0397C20.9875 20.1967 21.0936 20.394 21.0936 20.5898H21.5936C21.5936 20.2002 21.3811 19.8667 21.077 19.6393C20.7727 19.4118 20.3641 19.2782 19.9238 19.2782V19.7782ZM16.9634 17.3517C16.9634 18.7383 18.3452 19.7782 19.9238 19.7782V19.2782C18.5134 19.2782 17.4634 18.3654 17.4634 17.3517H16.9634ZM19.2302 14.9928C17.9705 15.2408 16.9634 16.173 16.9634 17.3517H17.4634C17.4634 16.4873 18.2186 15.7016 19.3268 15.4833L19.2302 14.9928ZM19.0285 14.9481V15.2381H19.5285V14.9481H19.0285ZM19.9238 14.1406C19.465 14.1406 19.0285 14.4691 19.0285 14.9481H19.5285C19.5285 14.8114 19.6699 14.6406 19.9238 14.6406V14.1406ZM20.8192 14.9481C20.8192 14.4691 20.3827 14.1406 19.9238 14.1406V14.6406C20.1777 14.6406 20.3192 14.8114 20.3192 14.9481H20.8192ZM20.8192 15.2381V14.9481H20.3192V15.2381H20.8192ZM22.8842 17.3517C22.8842 16.173 21.8772 15.2408 20.6175 14.9928L20.5208 15.4833C21.629 15.7016 22.3842 16.4873 22.3842 17.3517H22.8842ZM21.9889 18.1592C22.4477 18.1592 22.8842 17.8307 22.8842 17.3517H22.3842C22.3842 17.4884 22.2428 17.6592 21.9889 17.6592V18.1592ZM21.0936 17.3517C21.0936 17.8307 21.53 18.1592 21.9889 18.1592V17.6592C21.735 17.6592 21.5936 17.4884 21.5936 17.3517H21.0936ZM19.9238 16.5402C20.2664 16.5402 20.5676 16.6447 20.7775 16.8017C20.9875 16.9587 21.0936 17.156 21.0936 17.3517H21.5936C21.5936 16.9622 21.3811 16.6287 21.077 16.4012C20.7727 16.1738 20.3641 16.0402 19.9238 16.0402V16.5402ZM18.7541 17.3517C18.7541 17.156 18.8601 16.9587 19.0701 16.8017C19.28 16.6447 19.5813 16.5402 19.9238 16.5402V16.0402C19.4835 16.0402 19.0749 16.1738 18.7707 16.4012C18.4665 16.6287 18.2541 16.9622 18.2541 17.3517H18.7541Z" fill="#24695C"/>
<path d="M48.56 12.4C48.3067 11.9333 47.94 11.58 47.46 11.34C46.9933 11.0867 46.44 10.96 45.8 10.96C44.6933 10.96 43.8067 11.3267 43.14 12.06C42.4733 12.78 42.14 13.7467 42.14 14.96C42.14 16.2533 42.4867 17.2667 43.18 18C43.8867 18.72 44.8533 19.08 46.08 19.08C46.92 19.08 47.6267 18.8667 48.2 18.44C48.7867 18.0133 49.2133 17.4 49.48 16.6H45.14V14.08H52.58V17.26C52.3267 18.1133 51.8933 18.9067 51.28 19.64C50.68 20.3733 49.9133 20.9667 48.98 21.42C48.0467 21.8733 46.9933 22.1 45.82 22.1C44.4333 22.1 43.1933 21.8 42.1 21.2C41.02 20.5867 40.1733 19.74 39.56 18.66C38.96 17.58 38.66 16.3467 38.66 14.96C38.66 13.5733 38.96 12.34 39.56 11.26C40.1733 10.1667 41.02 9.32 42.1 8.72C43.18 8.10667 44.4133 7.8 45.8 7.8C47.48 7.8 48.8933 8.20667 50.04 9.02C51.2 9.83333 51.9667 10.96 52.34 12.4H48.56ZM59.5544 22.16C58.461 22.16 57.4744 21.9267 56.5944 21.46C55.7277 20.9933 55.041 20.3267 54.5344 19.46C54.041 18.5933 53.7944 17.58 53.7944 16.42C53.7944 15.2733 54.0477 14.2667 54.5544 13.4C55.061 12.52 55.7544 11.8467 56.6344 11.38C57.5144 10.9133 58.501 10.68 59.5944 10.68C60.6877 10.68 61.6744 10.9133 62.5544 11.38C63.4344 11.8467 64.1277 12.52 64.6344 13.4C65.141 14.2667 65.3944 15.2733 65.3944 16.42C65.3944 17.5667 65.1344 18.58 64.6144 19.46C64.1077 20.3267 63.4077 20.9933 62.5144 21.46C61.6344 21.9267 60.6477 22.16 59.5544 22.16ZM59.5544 19.2C60.2077 19.2 60.761 18.96 61.2144 18.48C61.681 18 61.9144 17.3133 61.9144 16.42C61.9144 15.5267 61.6877 14.84 61.2344 14.36C60.7944 13.88 60.2477 13.64 59.5944 13.64C58.9277 13.64 58.3744 13.88 57.9344 14.36C57.4944 14.8267 57.2744 15.5133 57.2744 16.42C57.2744 17.3133 57.4877 18 57.9144 18.48C58.3544 18.96 58.901 19.2 59.5544 19.2Z" fill="#C18E60"/>
<path d="M74.4888 14.82C74.9954 14.9 75.4554 15.1067 75.8688 15.44C76.2954 15.7733 76.6288 16.1867 76.8688 16.68C77.1221 17.1733 77.2488 17.7 77.2488 18.26C77.2488 18.9667 77.0688 19.6067 76.7088 20.18C76.3488 20.74 75.8221 21.1867 75.1288 21.52C74.4488 21.84 73.6421 22 72.7088 22H67.5088V8.06H72.5088C73.4554 8.06 74.2621 8.22 74.9288 8.54C75.5954 8.84667 76.0954 9.26667 76.4288 9.8C76.7621 10.3333 76.9288 10.9333 76.9288 11.6C76.9288 12.4267 76.7021 13.1133 76.2487 13.66C75.8088 14.1933 75.2221 14.58 74.4888 14.82ZM69.3288 14.08H72.3888C73.2421 14.08 73.9021 13.88 74.3688 13.48C74.8354 13.08 75.0688 12.5267 75.0688 11.82C75.0688 11.1133 74.8354 10.56 74.3688 10.16C73.9021 9.76 73.2288 9.56 72.3488 9.56H69.3288V14.08ZM72.5488 20.5C73.4554 20.5 74.1621 20.2867 74.6688 19.86C75.1754 19.4333 75.4288 18.84 75.4288 18.08C75.4288 17.3067 75.1621 16.7 74.6288 16.26C74.0954 15.8067 73.3821 15.58 72.4888 15.58H69.3288V20.5H72.5488ZM89.4944 11.04V22H87.6744V20.38C87.3277 20.94 86.841 21.38 86.2144 21.7C85.601 22.0067 84.921 22.16 84.1744 22.16C83.321 22.16 82.5544 21.9867 81.8744 21.64C81.1944 21.28 80.6544 20.7467 80.2544 20.04C79.8677 19.3333 79.6744 18.4733 79.6744 17.46V11.04H81.4744V17.22C81.4744 18.3 81.7477 19.1333 82.2944 19.72C82.841 20.2933 83.5877 20.58 84.5344 20.58C85.5077 20.58 86.2744 20.28 86.8344 19.68C87.3944 19.08 87.6744 18.2067 87.6744 17.06V11.04H89.4944ZM91.8873 16.48C91.8873 15.36 92.114 14.38 92.5673 13.54C93.0207 12.6867 93.6407 12.0267 94.4273 11.56C95.2273 11.0933 96.1207 10.86 97.1073 10.86C97.9607 10.86 98.754 11.06 99.4873 11.46C100.221 11.8467 100.781 12.36 101.167 13V7.2H103.007V22H101.167V19.94C100.807 20.5933 100.274 21.1333 99.5673 21.56C98.8607 21.9733 98.034 22.18 97.0873 22.18C96.114 22.18 95.2273 21.94 94.4273 21.46C93.6407 20.98 93.0207 20.3067 92.5673 19.44C92.114 18.5733 91.8873 17.5867 91.8873 16.48ZM101.167 16.5C101.167 15.6733 101.001 14.9533 100.667 14.34C100.334 13.7267 99.8807 13.26 99.3073 12.94C98.7473 12.6067 98.1273 12.44 97.4473 12.44C96.7673 12.44 96.1473 12.6 95.5873 12.92C95.0273 13.24 94.5807 13.7067 94.2473 14.32C93.914 14.9333 93.7473 15.6533 93.7473 16.48C93.7473 17.32 93.914 18.0533 94.2473 18.68C94.5807 19.2933 95.0273 19.7667 95.5873 20.1C96.1473 20.42 96.7673 20.58 97.4473 20.58C98.1273 20.58 98.7473 20.42 99.3073 20.1C99.8807 19.7667 100.334 19.2933 100.667 18.68C101.001 18.0533 101.167 17.3267 101.167 16.5ZM110.603 10.86C111.55 10.86 112.376 11.0667 113.083 11.48C113.803 11.8933 114.336 12.4133 114.683 13.04V11.04H116.523V22.24C116.523 23.24 116.31 24.1267 115.883 24.9C115.456 25.6867 114.843 26.3 114.043 26.74C113.256 27.18 112.336 27.4 111.283 27.4C109.843 27.4 108.643 27.06 107.683 26.38C106.723 25.7 106.156 24.7733 105.983 23.6H107.783C107.983 24.2667 108.396 24.8 109.023 25.2C109.65 25.6133 110.403 25.82 111.283 25.82C112.283 25.82 113.096 25.5067 113.723 24.88C114.363 24.2533 114.683 23.3733 114.683 22.24V19.94C114.323 20.58 113.79 21.1133 113.083 21.54C112.376 21.9667 111.55 22.18 110.603 22.18C109.63 22.18 108.743 21.94 107.943 21.46C107.156 20.98 106.536 20.3067 106.083 19.44C105.63 18.5733 105.403 17.5867 105.403 16.48C105.403 15.36 105.63 14.38 106.083 13.54C106.536 12.6867 107.156 12.0267 107.943 11.56C108.743 11.0933 109.63 10.86 110.603 10.86ZM114.683 16.5C114.683 15.6733 114.516 14.9533 114.183 14.34C113.85 13.7267 113.396 13.26 112.823 12.94C112.263 12.6067 111.643 12.44 110.963 12.44C110.283 12.44 109.663 12.6 109.103 12.92C108.543 13.24 108.096 13.7067 107.763 14.32C107.43 14.9333 107.263 15.6533 107.263 16.48C107.263 17.32 107.43 18.0533 107.763 18.68C108.096 19.2933 108.543 19.7667 109.103 20.1C109.663 20.42 110.283 20.58 110.963 20.58C111.643 20.58 112.263 20.42 112.823 20.1C113.396 19.7667 113.85 19.2933 114.183 18.68C114.516 18.0533 114.683 17.3267 114.683 16.5ZM129.599 16.1C129.599 16.4467 129.579 16.8133 129.539 17.2H120.779C120.845 18.28 121.212 19.1267 121.879 19.74C122.559 20.34 123.379 20.64 124.339 20.64C125.125 20.64 125.779 20.46 126.299 20.1C126.832 19.7267 127.205 19.2333 127.419 18.62H129.379C129.085 19.6733 128.499 20.5333 127.619 21.2C126.739 21.8533 125.645 22.18 124.339 22.18C123.299 22.18 122.365 21.9467 121.539 21.48C120.725 21.0133 120.085 20.3533 119.619 19.5C119.152 18.6333 118.919 17.6333 118.919 16.5C118.919 15.3667 119.145 14.3733 119.599 13.52C120.052 12.6667 120.685 12.0133 121.499 11.56C122.325 11.0933 123.272 10.86 124.339 10.86C125.379 10.86 126.299 11.0867 127.099 11.54C127.899 11.9933 128.512 12.62 128.939 13.42C129.379 14.2067 129.599 15.1 129.599 16.1ZM127.719 15.72C127.719 15.0267 127.565 14.4333 127.259 13.94C126.952 13.4333 126.532 13.0533 125.999 12.8C125.479 12.5333 124.899 12.4 124.259 12.4C123.339 12.4 122.552 12.6933 121.899 13.28C121.259 13.8667 120.892 14.68 120.799 15.72H127.719ZM134.221 12.54V19C134.221 19.5333 134.334 19.9133 134.561 20.14C134.788 20.3533 135.181 20.46 135.741 20.46H137.081V22H135.441C134.428 22 133.668 21.7667 133.161 21.3C132.654 20.8333 132.401 20.0667 132.401 19V12.54H130.981V11.04H132.401V8.28H134.221V11.04H137.081V12.54H134.221Z" fill="#24695C"/>
</svg>
