<svg width="100" height="100" viewBox="0 0 100 100" fill="none" xmlns="http://www.w3.org/2000/svg">
<g clip-path="url(#clip0)">
<path d="M79.01 47.5H52.51V21C52.51 19.61 51.39 18.49 50 18.49C48.61 18.49 47.49 19.61 47.49 21V47.5H20.99C19.61 47.5 18.48 48.62 18.48 50.01C18.48 51.39 19.61 52.52 20.99 52.52H47.49V79.01C47.49 80.4 48.61 81.52 50 81.52C51.39 81.52 52.51 80.4 52.51 79.01V52.52H79.01C80.4 52.52 81.52 51.39 81.52 50.01C81.52 48.62 80.4 47.5 79.01 47.5Z" fill="black"/>
</g>
<defs>
<clipPath id="clip0">
<rect width="100" height="100" fill="white"/>
</clipPath>
</defs>
</svg>
